<svg width="17" height="15" viewBox="0 0 43 37" fill="none" xmlns="http://www.w3.org/2000/svg">
<path d="M28.1598 0L34.9248 11.7181H42.1364V15.9318H39.6778L38.0829 35.068C38.0391 35.5945 37.799 36.0853 37.4104 36.4431C37.0217 36.801 36.5128 36.9997 35.9845 37H6.15192C5.62363 36.9997 5.11472 36.801 4.72607 36.4431C4.33741 36.0853 4.09737 35.5945 4.05352 35.068L2.45655 15.9318H0V11.7181H7.20954L13.9767 0L17.6257 2.10682L12.0763 11.7181H30.058L24.5108 2.10682L28.1598 0ZM35.4494 15.9318H6.68494L8.09019 32.7864H34.0441L35.4494 15.9318ZM23.175 20.1454V28.5727H18.9614V20.1454H23.175ZM14.7478 20.1454V28.5727H10.5341V20.1454H14.7478ZM31.6023 20.1454V28.5727H27.3887V20.1454H31.6023Z" fill="#FEF8F3"/>
</svg>
