<svg width="180" height="90" viewBox="0 0 159 64" fill="none" xmlns="http://www.w3.org/2000/svg">
<path d="M158 54.6181C145.507 54.3846 137.722 54.1327 137.551 53.1581C137.257 51.4747 138.252 44.5396 138.509 46.8559C138.766 49.1707 133.695 55.0405 132.087 55.4583C130.474 55.8776 100.308 63.6137 101.179 62.9609C102.048 62.3097 104.381 61.4395 104.556 58.4182C104.731 55.3961 107.162 56.2647 102.12 53.877C97.0355 51.4701 81.422 45.8851 79.7118 45.6478C77.997 45.4105 75.2813 43.6134 76.6988 45.3967C78.1118 47.1769 103.207 63.8165 100.407 61.8819C97.5949 59.9373 68.4633 44.4252 71.5158 44.6802C74.5539 44.9328 123.812 50.123 120.098 51.5922C116.361 53.0698 106.01 54.7517 111.399 54.1227C116.743 53.4991 133.731 47.6554 135.767 46.6186C137.797 45.5856 122.24 49.4733 124.539 48.0018C126.83 46.5341 143.301 38.6436 143.301 38.6436C143.301 38.6436 122.64 46.0679 119.396 46.2499C116.136 46.4327 69.4089 35.5401 69.2949 37.54C69.1809 39.5399 69.9174 41.996 69.9174 41.996C69.9174 41.996 68.1555 34.4043 70.1173 34.6631C72.073 34.9204 117.38 46.0165 118.076 44.5258C118.772 43.0366 120.136 40.4907 117.372 39.1667C114.595 37.8357 63.7805 29.8523 72.2888 31.1495C80.6839 32.4282 115.386 38.2781 120.702 37.7228C125.973 37.1714 130.751 31.257 131.906 31.704C133.059 32.1494 146.315 37.4317 143.413 36.7498C140.495 36.0655 139.927 32.2516 140.063 29.9291C140.199 27.6067 144.052 32.5495 144.433 29.3984C144.813 26.2473 142.862 22.6085 142.049 23.0071C141.236 23.4057 119.137 29.7778 119.1 30.4199C119.063 31.0612 120.096 37.7121 120.826 35.5878C121.556 33.4658 122.426 32.4151 115.018 30.542C104.085 27.7787 103.939 28.1781 72.2577 24.0362C72.2577 24.0362 75.1315 27.2173 73.5696 27.8463C72.0046 28.4761 115.14 35.4841 116.056 33.7837C116.969 32.0872 115.835 30.5612 117.729 29.5313C119.618 28.5045 140.68 22.756 140.569 21.2714C140.458 19.7869 140.309 15.5483 138.576 14.6397C136.839 13.7289 111.534 19.9028 111.534 19.9028C111.534 19.9028 118.168 25.4686 113.775 27.2887C109.352 29.122 71.6922 23.6737 73.6843 23.0632C75.6697 22.4542 79.977 18.8261 77.4581 17.6434C74.9294 16.456 71.6496 16.7932 74.9293 16.456C78.1931 16.1204 111.291 20.5426 108.226 20.0173C105.146 19.4897 73.7178 14.8647 73.7178 14.8647C73.7178 14.8647 77.0006 14.3118 76.4541 12.5231L75.9068 10.7321C75.9068 10.7321 106.922 13.9132 110.893 13.1897C114.839 12.4709 141.79 7.13403 141.79 7.13403C141.79 7.13403 144.227 9.34895 141.556 11.1476C138.873 12.9532 108.626 20.2461 109.514 19.1924C110.4 18.141 111.441 17.9583 111.142 16.006C110.842 14.0522 111.111 12.9816 109.489 12.4901C107.862 11.9978 76.86 9.21839 76.86 9.21839C76.86 9.21839 105.6 0.841019 109.119 1.0023C112.619 1.16281 138.574 4.45217 139.937 4.93678C141.297 5.41985 129.881 8.22229 128.859 9.56937C127.835 10.9188 111.276 16.7033 111.966 17.4975C112.654 18.2908 116.768 20.9819 117.075 24.0608C117.382 27.1367 74.1647 22.8504 80.4863 22.5002C86.7463 22.1523 114.87 26.4339 116.33 28.5175C117.787 30.5957 117.194 34.5417 117.293 34.9265C117.392 35.3113 120.356 38.4217 120.537 39.4424C120.719 40.463 140.71 36.2759 141.239 37.2904C141.768 38.305 132.607 39.2473 130.167 40.4715C127.717 41.7011 119.903 44.1418 119.903 44.1418C119.903 44.1418 134.164 40.907 135.29 41.8024C136.413 42.6964 137.622 44.0919 137.52 45.846C137.416 47.6016 135.907 51.3533 132.147 53.2203C128.364 55.0981 108.354 60.8151 105.634 61.0785C102.903 61.342 83.5426 48.312 81.2547 48.0325C79.4351 47.8098 72.3405 45.5449 68.5948 44.0105C67.6751 43.6341 12.5312 44.108 1 44.0105" stroke="#FEF8F3" stroke-width="1.2" stroke-linecap="round" stroke-linejoin="round"/>
<path d="M13.5798 38.7614C13.45 38.7614 13.3438 38.7083 13.2612 38.6021C13.1904 38.4841 13.155 38.3424 13.155 38.1772L13.1904 35.2036C13.2258 33.764 13.2435 32.6489 13.2435 31.8583C13.2435 29.1089 13.0901 27.0026 12.7833 25.5394C12.9603 25.268 13.1845 25.1323 13.4559 25.1323C13.8925 25.1323 14.2878 25.2326 14.6418 25.4332C15.0076 25.622 15.3085 25.8816 15.5445 26.212C16.0047 26.8964 16.2348 27.6634 16.2348 28.513C16.2348 29.398 16.046 30.1886 15.6684 30.8848C15.2908 31.581 14.7421 32.1238 14.0223 32.5132L14.0577 34.3009L14.0931 35.239C14.1049 35.4396 14.1108 35.7287 14.1108 36.1063C14.1462 36.8969 14.1639 37.54 14.1639 38.0356C14.1639 38.2598 14.1167 38.4369 14.0223 38.5667C13.9279 38.6965 13.7804 38.7614 13.5798 38.7614ZM13.9869 31.6636C14.4471 31.227 14.7834 30.7727 14.9958 30.3007C15.22 29.8169 15.3321 29.2741 15.3321 28.6723V28.6546C15.3321 28.3832 15.3026 28.041 15.2436 27.628C15.2082 27.4864 15.1433 27.3448 15.0489 27.2032C14.9545 27.0616 14.9014 26.979 14.8896 26.9554C14.807 26.8374 14.5887 26.6545 14.2347 26.4067L13.7745 26.0704C13.7745 26.6722 13.8099 27.6044 13.8807 28.867L13.9869 31.6636ZM18.9091 38.903C18.7557 38.903 18.6141 38.8499 18.4843 38.7437C18.3663 38.6375 18.3014 38.5077 18.2896 38.3542V37.894V37.54C18.2778 37.4338 18.2719 37.3099 18.2719 37.1683C18.2719 36.9205 18.2542 36.5429 18.2188 36.0355L18.1834 34.9027C18.1834 34.3245 18.2011 33.4631 18.2365 32.3185C18.2837 31.2919 18.3073 30.4305 18.3073 29.7343C18.3073 29.5691 18.2896 29.3213 18.2542 28.9909C18.2188 28.6487 18.2011 28.4009 18.2011 28.2475C18.2011 27.4097 18.4489 26.9908 18.9445 26.9908C19.3339 26.9908 19.7823 27.0675 20.2897 27.2209C20.8089 27.3743 21.0685 27.5572 21.0685 27.7696C21.0685 27.8876 21.0154 27.9997 20.9092 28.1059C20.8148 28.2003 20.6968 28.277 20.5552 28.336C20.0596 28.159 19.6112 28.041 19.21 27.982C19.2218 28.159 19.2277 28.4127 19.2277 28.7431C19.2277 29.2151 19.2218 29.6399 19.21 30.0175C19.1746 30.5839 19.1569 31.0087 19.1569 31.2919L19.21 31.5751L19.4932 31.5574C19.5876 31.5456 19.7056 31.5397 19.8472 31.5397C20.4136 31.5397 20.6968 31.7049 20.6968 32.0353C20.6968 32.1651 20.6437 32.2772 20.5375 32.3716C20.4313 32.4542 20.2956 32.4955 20.1304 32.4955C19.918 32.4955 19.7528 32.4837 19.6348 32.4601H19.1923C19.2159 32.7669 19.2277 33.2153 19.2277 33.8053C19.2277 34.3953 19.2218 34.9263 19.21 35.3983C19.1746 36.1181 19.1569 36.655 19.1569 37.009C19.1569 37.6698 19.1687 38.0002 19.1923 38.0002L19.7764 37.9825C19.977 37.9707 20.2189 37.9648 20.5021 37.9648C20.9505 37.9648 21.1747 38.1064 21.1747 38.3896C21.1747 38.5549 21.098 38.6788 20.9446 38.7614C20.803 38.8558 20.626 38.903 20.4136 38.903H18.9091ZM23.9391 38.903C23.7857 38.903 23.6441 38.8499 23.5143 38.7437C23.3963 38.6375 23.3314 38.5077 23.3196 38.3542V37.894V37.54C23.3078 37.4338 23.3019 37.3099 23.3019 37.1683C23.3019 36.9205 23.2842 36.5429 23.2488 36.0355L23.2134 34.9027C23.2134 34.3245 23.2311 33.4631 23.2665 32.3185C23.3137 31.2919 23.3373 30.4305 23.3373 29.7343C23.3373 29.5691 23.3196 29.3213 23.2842 28.9909C23.2488 28.6487 23.2311 28.4009 23.2311 28.2475C23.2311 27.4097 23.4789 26.9908 23.9745 26.9908C24.3639 26.9908 24.8123 27.0675 25.3197 27.2209C25.8389 27.3743 26.0985 27.5572 26.0985 27.7696C26.0985 27.8876 26.0454 27.9997 25.9392 28.1059C25.8448 28.2003 25.7268 28.277 25.5852 28.336C25.0896 28.159 24.6412 28.041 24.24 27.982C24.2518 28.159 24.2577 28.4127 24.2577 28.7431C24.2577 29.2151 24.2518 29.6399 24.24 30.0175C24.2046 30.5839 24.1869 31.0087 24.1869 31.2919L24.24 31.5751L24.5232 31.5574C24.6176 31.5456 24.7356 31.5397 24.8772 31.5397C25.4436 31.5397 25.7268 31.7049 25.7268 32.0353C25.7268 32.1651 25.6737 32.2772 25.5675 32.3716C25.4613 32.4542 25.3256 32.4955 25.1604 32.4955C24.948 32.4955 24.7828 32.4837 24.6648 32.4601H24.2223C24.2459 32.7669 24.2577 33.2153 24.2577 33.8053C24.2577 34.3953 24.2518 34.9263 24.24 35.3983C24.2046 36.1181 24.1869 36.655 24.1869 37.009C24.1869 37.6698 24.1987 38.0002 24.2223 38.0002L24.8064 37.9825C25.007 37.9707 25.2489 37.9648 25.5321 37.9648C25.9805 37.9648 26.2047 38.1064 26.2047 38.3896C26.2047 38.5549 26.128 38.6788 25.9746 38.7614C25.833 38.8558 25.656 38.903 25.4436 38.903H23.9391ZM32.3321 38.9738C32.0607 38.9738 31.7716 38.6788 31.4648 38.0887C31.0046 37.2037 30.5503 35.7464 30.1019 33.7168C29.9721 33.1622 29.8659 32.6489 29.7833 32.1769C29.3585 33.0265 29.1461 34.0531 29.1461 35.2567V38.5313C29.1461 38.8027 29.0281 38.9384 28.7921 38.9384C28.6151 38.9384 28.4676 38.8853 28.3496 38.7791C28.2434 38.6847 28.1903 38.549 28.1903 38.3719V33.0088C28.1903 32.4896 28.2493 31.5338 28.3673 30.1414C28.4853 28.926 28.5443 27.9702 28.5443 27.274C28.6387 27.0498 28.8098 26.9377 29.0576 26.9377C29.211 26.9377 29.3408 26.9908 29.447 27.097C29.5532 27.2032 29.6063 27.333 29.6063 27.4864V27.5395C29.4529 27.7991 29.3762 28.8729 29.3762 30.7609V31.3981L30.0311 30.106C30.4323 29.2682 30.8099 28.5484 31.1639 27.9466C31.4943 27.3566 31.7362 27.0616 31.8896 27.0616C32.0784 27.0616 32.2377 27.1029 32.3675 27.1855C32.5091 27.2681 32.5799 27.3861 32.5799 27.5395L32.1551 28.2475C31.2701 29.6753 30.7745 30.5013 30.6683 30.7255C30.6683 30.9261 30.6624 31.1031 30.6506 31.2565L30.6329 31.7875C30.6329 32.2949 30.8335 33.2448 31.2347 34.6372C31.6477 36.0178 31.9899 36.9323 32.2613 37.3807L32.4914 37.6993C32.7156 38.0061 32.8277 38.2775 32.8277 38.5136C32.8277 38.6434 32.7746 38.7496 32.6684 38.8322C32.574 38.9266 32.4619 38.9738 32.3321 38.9738ZM37.83 38.8322C37.5586 38.8322 37.3579 38.7909 37.2281 38.7083C37.0983 38.6257 37.0334 38.4723 37.0334 38.248C37.0334 37.894 36.9744 37.2922 36.8564 36.4426L36.7856 36.0709L35.0333 35.8054C34.9625 36.0768 34.8622 36.6255 34.7324 37.4515C34.6616 38.0297 34.5495 38.4132 34.3961 38.6021C34.3135 38.7083 34.1955 38.7614 34.0421 38.7614C33.9005 38.7614 33.7707 38.7201 33.6527 38.6375C33.5347 38.5431 33.4757 38.4309 33.4757 38.3011L33.5111 38.2126L33.5288 38.1418C34.3076 35.1092 34.8976 32.1179 35.2988 29.1679C35.2988 29.1207 35.3047 29.044 35.3165 28.9378C35.3283 28.8198 35.3401 28.6546 35.3519 28.4422C35.3873 28.0056 35.4227 27.6575 35.4581 27.3979C35.5053 27.1383 35.5761 26.9436 35.6705 26.8138H36.2723C36.4375 26.8138 36.5791 26.8551 36.6971 26.9377C36.8151 27.0085 36.8741 27.1147 36.8741 27.2563C36.8741 28.1531 36.998 29.4865 37.2458 31.2565C37.4819 33.0737 37.5999 34.3481 37.5999 35.0797C37.5999 35.1505 37.6294 35.3334 37.6884 35.6284C37.7474 35.8998 37.7769 36.0768 37.7769 36.1594C37.7769 36.242 37.8359 36.596 37.9539 37.2214C38.0601 37.7878 38.1132 38.1536 38.1132 38.3188V38.3365C38.1132 38.5962 38.0188 38.7614 37.83 38.8322ZM36.6617 35.4337C36.6263 35.2567 36.6086 35.0384 36.6086 34.7788C36.6086 33.7168 36.5142 32.3598 36.3254 30.7078L36.1484 28.867C35.641 31.64 35.2929 33.7345 35.1041 35.1505C35.2811 35.2685 35.8003 35.3629 36.6617 35.4337ZM40.1456 38.8499C39.886 38.8499 39.7267 38.7378 39.6677 38.5136C39.6205 38.3719 39.5969 38.1713 39.5969 37.9117C39.5969 37.4043 39.6205 36.7789 39.6677 36.0355C39.7267 35.3275 39.7562 34.6962 39.7562 34.1416C39.7562 33.5162 39.7739 32.5781 39.8093 31.3273L39.8447 28.5307C39.8447 28.4245 39.827 28.2652 39.7916 28.0528L39.7385 27.6103V27.5218C39.7385 27.2504 39.7798 27.0498 39.8624 26.92C39.945 26.7902 40.0984 26.7253 40.3226 26.7253C40.6294 26.7253 40.9657 26.8138 41.3315 26.9908C41.6973 27.1678 41.9628 27.392 42.128 27.6634C42.4702 28.2298 42.6413 28.9378 42.6413 29.7874C42.6413 30.4246 42.5882 30.9615 42.482 31.3981C42.3758 31.8229 42.1929 32.2182 41.9333 32.584C42.2519 32.8908 42.4643 33.2861 42.5705 33.7699C42.6885 34.2419 42.7475 34.8378 42.7475 35.5576C42.7475 36.2774 42.6236 36.9028 42.3758 37.4338C42.0926 38.0356 41.6796 38.4487 41.1368 38.6729C40.8064 38.7909 40.476 38.8499 40.1456 38.8499ZM40.712 32.0707C41.3256 32.0589 41.6324 31.345 41.6324 29.929C41.6324 28.4068 41.3905 27.6103 40.9067 27.5395C40.7769 27.8109 40.712 28.4481 40.712 29.4511V32.0707ZM40.6058 37.9471C40.9834 37.8645 41.2784 37.6403 41.4908 37.2745C41.7032 36.9087 41.8094 36.4898 41.8094 36.0178C41.8094 35.5222 41.7799 35.0856 41.7209 34.708C41.6737 34.413 41.6088 34.1711 41.5262 33.9823C41.4554 33.7817 41.3551 33.5988 41.2253 33.4336C41.0837 33.2566 40.9185 33.1504 40.7297 33.115C40.6825 33.7876 40.6589 34.6785 40.6589 35.7877C40.6589 35.8585 40.6471 36.0827 40.6235 36.4603L40.5881 37.0621C40.5881 37.0857 40.594 37.1034 40.6058 37.1152V37.1506V37.9471ZM46.7505 39.0092C46.4437 39.0092 46.1605 38.9089 45.9009 38.7083C45.6413 38.5195 45.4289 38.2598 45.2637 37.9294C44.9215 37.2096 44.7091 36.4249 44.6265 35.5753C44.5203 34.7729 44.4672 34 44.4672 33.2566C44.4672 33.115 44.4731 32.997 44.4849 32.9026V32.584C44.4849 32.525 44.479 32.4955 44.4672 32.4955V32.1769L44.4849 30.9379C44.4967 30.5603 44.5439 29.9585 44.6265 29.1325C44.6855 28.5661 44.8212 28.0174 45.0336 27.4864C45.1162 27.2504 45.2224 27.0734 45.3522 26.9554C45.482 26.8256 45.6295 26.7607 45.7947 26.7607C46.2667 26.7607 46.6915 26.8492 47.0691 27.0262C47.4467 27.1914 47.7653 27.4274 48.0249 27.7342C48.2609 28.0292 48.4615 28.395 48.6267 28.8316C48.7919 29.2564 48.9099 29.7107 48.9807 30.1945C49.0515 30.6901 49.0869 31.2152 49.0869 31.7698V31.9114C49.0869 32.2772 49.0928 32.6076 49.1046 32.9026L49.1223 33.9115C49.1223 37.3099 48.3317 39.0092 46.7505 39.0092ZM46.6797 38.2657C46.8921 38.2657 47.0868 38.1831 47.2638 38.0179C47.4408 37.8409 47.5765 37.6049 47.6709 37.3099C47.8951 36.7081 48.0308 36.0591 48.078 35.3629C48.137 34.7611 48.1665 34.2419 48.1665 33.8053C48.1665 33.2743 48.1252 32.5781 48.0426 31.7167C47.9718 30.8081 47.9364 30.1296 47.9364 29.6812V29.3626C47.9128 28.9142 47.7594 28.5248 47.4762 28.1944C47.2048 27.864 46.8685 27.6988 46.4673 27.6988C46.0661 27.6988 45.8006 27.9289 45.6708 28.3891C45.5528 28.7549 45.4938 29.2269 45.4938 29.8051C45.4938 30.0293 45.4997 30.2181 45.5115 30.3715V30.8494L45.4761 31.6636C45.4525 31.9114 45.4407 32.1828 45.4407 32.4778C45.4407 33.115 45.4584 33.7463 45.4938 34.3717C45.541 35.2567 45.659 36.1181 45.8478 36.9559C46.0366 37.8291 46.3139 38.2657 46.6797 38.2657ZM53.1288 39.0092C52.822 39.0092 52.5388 38.9089 52.2792 38.7083C52.0196 38.5195 51.8072 38.2598 51.642 37.9294C51.2998 37.2096 51.0874 36.4249 51.0048 35.5753C50.8986 34.7729 50.8455 34 50.8455 33.2566C50.8455 33.115 50.8514 32.997 50.8632 32.9026V32.584C50.8632 32.525 50.8573 32.4955 50.8455 32.4955V32.1769L50.8632 30.9379C50.875 30.5603 50.9222 29.9585 51.0048 29.1325C51.0638 28.5661 51.1995 28.0174 51.4119 27.4864C51.4945 27.2504 51.6007 27.0734 51.7305 26.9554C51.8603 26.8256 52.0078 26.7607 52.173 26.7607C52.645 26.7607 53.0698 26.8492 53.4474 27.0262C53.825 27.1914 54.1436 27.4274 54.4032 27.7342C54.6392 28.0292 54.8398 28.395 55.005 28.8316C55.1702 29.2564 55.2882 29.7107 55.359 30.1945C55.4298 30.6901 55.4652 31.2152 55.4652 31.7698V31.9114C55.4652 32.2772 55.4711 32.6076 55.4829 32.9026L55.5006 33.9115C55.5006 37.3099 54.71 39.0092 53.1288 39.0092ZM53.058 38.2657C53.2704 38.2657 53.4651 38.1831 53.6421 38.0179C53.8191 37.8409 53.9548 37.6049 54.0492 37.3099C54.2734 36.7081 54.4091 36.0591 54.4563 35.3629C54.5153 34.7611 54.5448 34.2419 54.5448 33.8053C54.5448 33.2743 54.5035 32.5781 54.4209 31.7167C54.3501 30.8081 54.3147 30.1296 54.3147 29.6812V29.3626C54.2911 28.9142 54.1377 28.5248 53.8545 28.1944C53.5831 27.864 53.2468 27.6988 52.8456 27.6988C52.4444 27.6988 52.1789 27.9289 52.0491 28.3891C51.9311 28.7549 51.8721 29.2269 51.8721 29.8051C51.8721 30.0293 51.878 30.2181 51.8898 30.3715V30.8494L51.8544 31.6636C51.8308 31.9114 51.819 32.1828 51.819 32.4778C51.819 33.115 51.8367 33.7463 51.8721 34.3717C51.9193 35.2567 52.0373 36.1181 52.2261 36.9559C52.4149 37.8291 52.6922 38.2657 53.058 38.2657ZM61.6134 38.9738C61.342 38.9738 61.0529 38.6788 60.7461 38.0887C60.2859 37.2037 59.8316 35.7464 59.3832 33.7168C59.2534 33.1622 59.1472 32.6489 59.0646 32.1769C58.6398 33.0265 58.4274 34.0531 58.4274 35.2567V38.5313C58.4274 38.8027 58.3094 38.9384 58.0734 38.9384C57.8964 38.9384 57.7489 38.8853 57.6308 38.7791C57.5246 38.6847 57.4715 38.549 57.4715 38.3719V33.0088C57.4715 32.4896 57.5305 31.5338 57.6486 30.1414C57.7666 28.926 57.8256 27.9702 57.8256 27.274C57.92 27.0498 58.0911 26.9377 58.3389 26.9377C58.4923 26.9377 58.6221 26.9908 58.7283 27.097C58.8345 27.2032 58.8876 27.333 58.8876 27.4864V27.5395C58.7342 27.7991 58.6575 28.8729 58.6575 30.7609V31.3981L59.3124 30.106C59.7136 29.2682 60.0912 28.5484 60.4452 27.9466C60.7756 27.3566 61.0175 27.0616 61.1709 27.0616C61.3597 27.0616 61.519 27.1029 61.6488 27.1855C61.7904 27.2681 61.8612 27.3861 61.8612 27.5395L61.4364 28.2475C60.5514 29.6753 60.0558 30.5013 59.9496 30.7255C59.9496 30.9261 59.9437 31.1031 59.9319 31.2565L59.9142 31.7875C59.9142 32.2949 60.1148 33.2448 60.516 34.6372C60.929 36.0178 61.2712 36.9323 61.5426 37.3807L61.7727 37.6993C61.9969 38.0061 62.109 38.2775 62.109 38.5136C62.109 38.6434 62.0559 38.7496 61.9497 38.8322C61.8553 38.9266 61.7432 38.9738 61.6134 38.9738Z" fill="#FEF8F3"/>
</svg>
