<svg width="139" height="131" viewBox="0 0 139 131" fill="none" xmlns="http://www.w3.org/2000/svg">
<path d="M124.626 128.73C131.461 128.73 137.001 123.19 137.001 116.355C137.001 110.229 132.549 105.158 126.706 104.166C128.938 100.91 130.251 96.9732 130.251 92.7256C130.251 81.5418 121.184 72.4741 110 72.4741C104.685 72.4741 99.8649 74.5384 96.2518 77.8847C95.1096 72.2307 90.1134 67.9727 84.1227 67.9727C79.1602 67.9727 74.8892 70.9019 72.9182 75.1185C70.3022 73.4505 67.2046 72.4715 63.8712 72.4715C54.7517 72.4715 47.3416 79.7081 47.0256 88.7499C45.5674 88.4158 44.0548 88.2241 42.4956 88.2241C31.3118 88.2241 22.2441 97.2918 22.2441 108.476C22.2441 119.659 31.3118 128.727 42.4956 128.727H124.628L124.626 128.73Z" stroke="#3E1A09" stroke-width="4" stroke-linecap="round" stroke-linejoin="round"/>
<path d="M22.2402 108.479C22.2402 97.2952 31.3079 88.2275 42.4917 88.2275C47.664 88.2275 52.3805 90.1649 55.9599 93.3558" stroke="#3E1A09" stroke-width="4" stroke-linecap="round" stroke-linejoin="round"/>
<path d="M97.6504 43.2261L107.215 40.6982" stroke="#3E1A09" stroke-width="4" stroke-linecap="round" stroke-linejoin="round"/>
<path d="M2 68.5207L11.565 65.9902" stroke="#3E1A09" stroke-width="4" stroke-linecap="round" stroke-linejoin="round"/>
<path d="M40.6973 2L43.2277 11.565" stroke="#3E1A09" stroke-width="4" stroke-linecap="round" stroke-linejoin="round"/>
<path d="M7.57227 27.2461L16.1246 32.2215" stroke="#3E1A09" stroke-width="4" stroke-linecap="round" stroke-linejoin="round"/>
<path d="M81.9697 7.57031L76.9941 16.1226" stroke="#3E1A09" stroke-width="4" stroke-linecap="round" stroke-linejoin="round"/>
<path d="M46.885 86.2045C32.6009 82.7364 21.9922 69.8614 21.9922 54.5103C21.9922 36.4992 36.5948 21.8965 54.6059 21.8965C72.617 21.8965 87.2197 36.4992 87.2197 54.5103C87.2197 59.2034 86.2276 63.6634 84.4431 67.6961" stroke="#3E1A09" stroke-width="4" stroke-linecap="round" stroke-linejoin="round"/>
<path d="M80.4739 101.69C81.6039 101.69 82.52 100.774 82.52 99.6438C82.52 98.5138 81.6039 97.5977 80.4739 97.5977C79.3439 97.5977 78.4277 98.5138 78.4277 99.6438C78.4277 100.774 79.3439 101.69 80.4739 101.69Z" fill="#3E1A09"/>
<path d="M94.2512 101.69C95.3812 101.69 96.2973 100.774 96.2973 99.6438C96.2973 98.5138 95.3812 97.5977 94.2512 97.5977C93.1211 97.5977 92.2051 98.5138 92.2051 99.6438C92.2051 100.774 93.1211 101.69 94.2512 101.69Z" fill="#3E1A09"/>
<path d="M81.1016 110.909C82.3344 113.424 84.8468 115.028 87.5301 114.999C90.6873 114.968 93.5389 112.681 94.347 109.415" stroke="#3E1A09" stroke-width="4" stroke-linecap="round" stroke-linejoin="round"/>
<path d="M112.038 110.064H104.635C102.921 110.064 101.52 108.662 101.52 106.948C101.52 105.233 102.921 103.832 104.635 103.832H112.038C113.752 103.832 115.153 105.233 115.153 106.948C115.153 108.662 113.752 110.064 112.038 110.064Z" stroke="#3E1A09" stroke-width="4" stroke-linecap="round" stroke-linejoin="round"/>
<path d="M69.9791 110.064H62.5768C60.8622 110.064 59.4609 108.662 59.4609 106.948C59.4609 105.233 60.8622 103.832 62.5768 103.832H69.9791C71.6937 103.832 73.0949 105.233 73.0949 106.948C73.0949 108.662 71.6937 110.064 69.9791 110.064Z" stroke="#3E1A09" stroke-width="4" stroke-linecap="round" stroke-linejoin="round"/>
<path d="M49.5236 50.1817C49.7005 49.0916 48.9603 48.0646 47.8703 47.8876C46.7802 47.7107 45.7532 48.4509 45.5762 49.5409C45.3993 50.6309 46.1395 51.6581 47.2295 51.835C48.3196 52.012 49.3466 51.2717 49.5236 50.1817Z" fill="#3E1A09"/>
<path d="M62.9826 50.1788C63.1595 49.0888 62.4193 48.0617 61.3293 47.8848C60.2392 47.7078 59.2122 48.448 59.0352 49.5381C58.8583 50.6281 59.5985 51.6552 60.6885 51.8321C61.7785 52.009 62.8056 51.2688 62.9826 50.1788Z" fill="#3E1A09"/>
<path d="M48.1367 60.8312C49.3411 63.2892 51.7964 64.8535 54.4176 64.8276C57.5023 64.7965 60.2892 62.5614 61.0791 59.373" stroke="#3E1A09" stroke-width="4" stroke-linecap="round" stroke-linejoin="round"/>
</svg>
