<svg width="268" height="106" viewBox="0 0 268 106" fill="none" xmlns="http://www.w3.org/2000/svg">
<path d="M267.1 90.94C245.926 90.5484 232.73 90.1259 232.441 88.4911C231.942 85.6672 233.63 74.0342 234.065 77.9196C234.5 81.8024 225.905 91.6486 223.179 92.3494C220.446 93.0528 169.317 106.029 170.793 104.934C172.267 103.842 176.221 102.382 176.517 97.3144C176.813 92.2451 180.935 93.7021 172.388 89.6969C163.771 85.6595 137.307 76.2912 134.409 75.8931C131.503 75.4951 126.9 72.4805 129.302 75.4719C131.697 78.4581 174.232 106.37 169.486 103.124C164.719 99.8625 115.344 73.8422 120.518 74.2699C125.667 74.6938 209.155 83.3998 202.859 85.8643C196.526 88.3429 178.982 91.1642 188.115 90.1091C197.173 89.063 225.966 79.2607 229.417 77.5215C232.858 75.7888 206.49 82.31 210.387 79.8417C214.27 77.3798 242.186 64.1442 242.186 64.1442C242.186 64.1442 207.167 76.5978 201.669 76.9031C196.144 77.2097 116.946 58.9383 116.753 62.2929C116.56 65.6476 117.808 69.7674 117.808 69.7674C117.808 69.7674 114.822 57.033 118.147 57.4671C121.462 57.8987 198.253 76.5115 199.433 74.011C200.611 71.513 202.924 67.2425 198.24 65.0215C193.532 62.7889 107.407 49.3974 121.828 51.5733C136.057 53.7183 194.873 63.531 203.884 62.5996C212.818 61.6746 220.916 51.7537 222.873 52.5034C224.827 53.2506 247.295 62.1113 242.376 60.9673C237.431 59.8195 236.468 53.422 236.698 49.5263C236.929 45.6306 243.459 53.9218 244.104 48.6361C244.75 43.3503 241.442 37.2466 240.064 37.9152C238.686 38.5838 201.231 49.2725 201.168 50.3495C201.105 51.4252 202.856 62.5815 204.094 59.0182C205.332 55.4587 206.805 53.6964 194.25 50.5543C175.72 45.9191 175.471 46.589 121.775 39.6414C121.775 39.6414 126.646 44.9774 123.998 46.0325C121.346 47.0889 194.456 58.8443 196.008 55.9921C197.557 53.1463 195.634 50.5865 198.844 48.8589C202.045 47.1365 237.744 37.4939 237.556 35.0037C237.368 32.5135 237.116 25.4036 234.178 23.8795C231.233 22.3517 188.345 32.708 188.345 32.708C188.345 32.708 199.589 42.044 192.142 45.0972C184.646 48.1723 120.816 39.0334 124.193 38.0092C127.558 36.9876 134.859 30.9019 130.589 28.9179C126.303 26.9263 120.744 27.4918 126.303 26.9263C131.835 26.3633 187.932 33.7811 182.738 32.9C177.518 32.0149 124.25 24.257 124.25 24.257C124.25 24.257 129.814 23.3294 128.887 20.3291L127.96 17.3249C127.96 17.3249 180.527 22.6608 187.257 21.4473C193.946 20.2415 239.625 11.2893 239.625 11.2893C239.625 11.2893 243.757 15.0047 239.228 18.0218C234.681 21.0505 183.416 33.2839 184.92 31.5164C186.423 29.7527 188.186 29.4461 187.68 26.1714C187.172 22.894 187.627 21.0982 184.878 20.2737C182.121 19.4479 129.575 14.7857 129.575 14.7857C129.575 14.7857 178.287 0.733322 184.252 1.00386C190.184 1.2731 234.175 6.79073 236.484 7.60363C238.789 8.41394 219.441 13.1148 217.708 15.3744C215.973 17.6379 187.908 27.3411 189.076 28.6732C190.243 30.0039 197.216 34.518 197.736 39.6827C198.256 44.8421 125.007 37.6524 135.722 37.0649C146.332 36.4813 193.999 43.6634 196.474 47.1584C198.943 50.6445 197.938 57.2636 198.106 57.909C198.273 58.5544 203.296 63.7719 203.604 65.484C203.912 67.1961 237.796 60.1725 238.692 61.8743C239.588 63.5761 224.062 65.1568 219.925 67.2103C215.773 69.2728 202.528 73.3669 202.528 73.3669C202.528 73.3669 226.7 67.9407 228.608 69.4428C230.512 70.9423 232.562 73.2831 232.388 76.2255C232.213 79.1705 229.654 85.4636 223.281 88.5954C216.869 91.7452 182.954 101.335 178.345 101.777C173.716 102.219 140.902 80.3621 137.024 79.8932C133.94 79.5196 121.915 75.7205 115.567 73.1466C114.008 72.5153 20.5442 73.3102 1 73.1466" stroke="#3e1a09" stroke-width="1.1" stroke-linecap="round" stroke-linejoin="round"/>
<path d="M22.14 65.18C21.9 65.18 21.78 64.83 21.78 64.13C21.78 63.13 21.77 62.24 21.75 61.46L21.69 58.76V56.33C21.67 55.61 21.66 54.8 21.66 53.9C21.66 51.22 21.61 48.74 21.51 46.46L21.48 45.38C21.42 44.2 21.39 43.24 21.39 42.5L21.48 42.38C21.5 42.34 21.54 42.29 21.6 42.23C21.62 42.17 21.67 42.13 21.75 42.11C21.79 42.09 21.86 42.08 21.96 42.08C22.66 42.08 23.29 42.24 23.85 42.56C24.43 42.88 24.9 43.32 25.26 43.88C25.96 44.98 26.31 46.23 26.31 47.63C26.31 48.53 26.16 49.45 25.86 50.39C25.58 51.33 25.15 52.18 24.57 52.94C23.97 53.76 23.3 54.24 22.56 54.38L22.62 57.71L22.68 59.33C22.76 61.25 22.8 62.89 22.8 64.25C22.8 64.57 22.75 64.81 22.65 64.97C22.57 65.11 22.4 65.18 22.14 65.18ZM22.56 53.27C22.74 53.25 22.92 53.17 23.1 53.03C23.14 53.01 23.21 52.93 23.31 52.79C23.31 52.79 23.38 52.72 23.52 52.58C24.82 51.28 25.47 49.65 25.47 47.69C25.47 46.57 25.25 45.53 24.81 44.57C24.57 44.07 24.22 43.68 23.76 43.4C23.3 43.1 22.76 42.95 22.14 42.95C22.14 44.09 22.2 45.8 22.32 48.08C22.44 50.36 22.5 52.07 22.5 53.21L22.56 53.27ZM30.521 65.39C30.161 65.39 29.961 65.18 29.921 64.76V64.37C29.941 64.27 29.951 64.15 29.951 64.01L29.831 63.89C29.991 63.47 30.071 63.06 30.071 62.66C30.071 62.2 30.041 61.54 29.981 60.68L29.921 58.7C29.921 57.7 29.951 56.2 30.011 54.2C30.091 52.42 30.131 50.91 30.131 49.67L30.071 47.87C30.031 47.33 30.011 46.73 30.011 46.07C30.011 45.77 30.081 45.56 30.221 45.44C30.361 45.3 30.581 45.23 30.881 45.23C31.081 45.23 31.241 45.29 31.361 45.41C31.401 45.43 31.691 45.47 32.231 45.53C32.731 45.59 33.161 45.68 33.521 45.8C33.901 45.92 34.091 46.07 34.091 46.25C34.091 46.45 33.901 46.65 33.521 46.85C32.381 46.47 31.571 46.28 31.091 46.28L30.941 46.46C30.961 46.64 30.971 47.07 30.971 47.75C30.971 48.61 30.951 49.38 30.911 50.06C30.891 50.76 30.881 51.54 30.881 52.4C30.881 52.96 31.021 53.24 31.301 53.24L31.781 53.21C31.941 53.19 32.111 53.18 32.291 53.18C33.071 53.18 33.461 53.36 33.461 53.72C33.461 53.94 33.411 54.13 33.311 54.29C33.211 54.43 33.061 54.5 32.861 54.5C32.561 54.5 32.331 54.42 32.171 54.26L31.211 54.11H31.061L30.911 54.26V54.35C30.951 54.69 30.971 55.48 30.971 56.72C30.971 57.5 30.961 58.21 30.941 58.85L30.911 60.98C30.911 61.76 30.941 62.56 31.001 63.38C31.021 63.84 31.121 64.15 31.301 64.31C31.481 64.45 31.811 64.52 32.291 64.52L32.831 64.49C33.011 64.47 33.211 64.46 33.431 64.46C34.011 64.46 34.301 64.59 34.301 64.85C34.301 65.21 33.861 65.39 32.981 65.39H30.521ZM38.1968 65.39C37.8368 65.39 37.6368 65.18 37.5968 64.76V64.37C37.6168 64.27 37.6268 64.15 37.6268 64.01L37.5068 63.89C37.6668 63.47 37.7468 63.06 37.7468 62.66C37.7468 62.2 37.7168 61.54 37.6568 60.68L37.5968 58.7C37.5968 57.7 37.6268 56.2 37.6868 54.2C37.7668 52.42 37.8068 50.91 37.8068 49.67L37.7468 47.87C37.7068 47.33 37.6868 46.73 37.6868 46.07C37.6868 45.77 37.7568 45.56 37.8968 45.44C38.0368 45.3 38.2568 45.23 38.5568 45.23C38.7568 45.23 38.9168 45.29 39.0368 45.41C39.0768 45.43 39.3668 45.47 39.9068 45.53C40.4068 45.59 40.8368 45.68 41.1968 45.8C41.5768 45.92 41.7668 46.07 41.7668 46.25C41.7668 46.45 41.5768 46.65 41.1968 46.85C40.0568 46.47 39.2468 46.28 38.7668 46.28L38.6168 46.46C38.6368 46.64 38.6468 47.07 38.6468 47.75C38.6468 48.61 38.6268 49.38 38.5868 50.06C38.5668 50.76 38.5568 51.54 38.5568 52.4C38.5568 52.96 38.6968 53.24 38.9768 53.24L39.4568 53.21C39.6168 53.19 39.7868 53.18 39.9668 53.18C40.7468 53.18 41.1368 53.36 41.1368 53.72C41.1368 53.94 41.0868 54.13 40.9868 54.29C40.8868 54.43 40.7368 54.5 40.5368 54.5C40.2368 54.5 40.0068 54.42 39.8468 54.26L38.8868 54.11H38.7368L38.5868 54.26V54.35C38.6268 54.69 38.6468 55.48 38.6468 56.72C38.6468 57.5 38.6368 58.21 38.6168 58.85L38.5868 60.98C38.5868 61.76 38.6168 62.56 38.6768 63.38C38.6968 63.84 38.7968 64.15 38.9768 64.31C39.1568 64.45 39.4868 64.52 39.9668 64.52L40.5068 64.49C40.6868 64.47 40.8868 64.46 41.1068 64.46C41.6868 64.46 41.9768 64.59 41.9768 64.85C41.9768 65.21 41.5368 65.39 40.6568 65.39H38.1968ZM51.8726 65.54C51.3926 65.54 50.8226 64.64 50.1626 62.84C49.5426 61.18 49.0026 59.38 48.5426 57.44C48.0826 55.5 47.8326 54.14 47.7926 53.36L47.7026 53.24L47.2526 54.2C47.0326 54.62 46.8626 54.97 46.7426 55.25C46.6426 55.51 46.5426 55.84 46.4426 56.24C46.3226 56.62 46.2626 57.01 46.2626 57.41C46.2626 57.81 46.2426 58.17 46.2026 58.49L46.1426 59.57V63.41C46.1426 63.59 46.1726 63.88 46.2326 64.28C46.2926 64.64 46.3226 64.92 46.3226 65.12C46.3226 65.22 46.2726 65.3 46.1726 65.36C46.0726 65.44 45.9626 65.48 45.8426 65.48C45.5826 65.48 45.4026 65.44 45.3026 65.36C45.2226 65.28 45.1826 65.11 45.1826 64.85V59.21C45.1826 58.89 45.2326 58.26 45.3326 57.32C45.4326 56.38 45.4826 55.75 45.4826 55.43C45.4826 54.59 45.5326 53.62 45.6326 52.52C45.7126 51.4 45.7526 50.44 45.7526 49.64V45.47C45.8726 45.25 46.0626 45.14 46.3226 45.14C46.4826 45.14 46.6126 45.2 46.7126 45.32C46.8326 45.42 46.8926 45.55 46.8926 45.71C46.7326 46.07 46.6526 46.55 46.6526 47.15L46.5926 50.3C46.5526 51.26 46.5326 52.32 46.5326 53.48C46.7326 53.42 47.5126 52.04 48.8726 49.34C50.2326 46.66 50.9826 45.32 51.1226 45.32C51.6426 45.32 51.9026 45.49 51.9026 45.83C50.6226 47.73 49.5626 49.58 48.7226 51.38L48.6926 52.34C48.6726 52.62 48.6626 52.94 48.6626 53.3C48.6626 54.18 49.0026 55.83 49.6826 58.25C50.3626 60.67 50.9426 62.35 51.4226 63.29C51.6426 63.59 51.7726 63.76 51.8126 63.8C52.0126 64.08 52.1526 64.32 52.2326 64.52C52.3326 64.7 52.3826 64.89 52.3826 65.09C52.3826 65.23 52.3326 65.34 52.2326 65.42C52.1326 65.5 52.0126 65.54 51.8726 65.54ZM61.1149 65.27C60.8149 65.27 60.6249 65.23 60.5449 65.15C60.4649 65.09 60.4049 64.91 60.3649 64.61C60.1849 63.15 60.0749 62.24 60.0349 61.88L59.8849 60.68C59.4449 60.58 58.9449 60.53 58.3849 60.53L57.3049 60.47C56.8249 60.41 56.4749 60.38 56.2549 60.38C56.1349 60.38 56.0649 60.43 56.0449 60.53C56.0449 60.59 56.0349 60.62 56.0149 60.62L55.9549 61.22C55.9349 61.58 55.8249 62.3 55.6249 63.38C55.5249 63.92 55.4049 64.34 55.2649 64.64C55.1049 64.98 54.9549 65.15 54.8149 65.15C54.6949 65.15 54.5649 65.1 54.4249 65C54.2849 64.88 54.2149 64.76 54.2149 64.64L54.2449 64.55L54.2749 64.46C54.6349 63.04 54.9349 61.63 55.1749 60.23L55.5349 58.37L55.8949 56.09C55.8949 56.09 56.0049 55.43 56.2249 54.11C56.3249 53.57 56.5049 52.7 56.7649 51.5C57.0449 50.14 57.2149 49.21 57.2749 48.71C57.2949 48.65 57.3349 48.28 57.3949 47.6C57.4749 46.84 57.5449 46.28 57.6049 45.92C57.6649 45.4 57.7249 45.1 57.7849 45.02H57.9949C58.0549 45.04 58.1249 45.05 58.2049 45.05C58.4449 45.05 58.6249 44.99 58.7449 44.87C58.8849 44.87 59.0049 44.92 59.1049 45.02C59.2249 45.1 59.2849 45.2 59.2849 45.32C59.2849 46.28 59.3549 47.38 59.4949 48.62C59.5749 49.26 59.6349 49.79 59.6749 50.21C59.8949 52.79 60.4549 57.63 61.3549 64.73V64.82C61.3549 65.02 61.2749 65.17 61.1149 65.27ZM59.7349 59.87C59.5349 56.99 59.1549 52.74 58.5949 47.12L56.9749 55.13C56.5149 57.43 56.2849 58.88 56.2849 59.48C56.2849 59.58 56.6649 59.67 57.4249 59.75C58.1849 59.83 58.8549 59.87 59.4349 59.87H59.7349ZM65.0892 65.33C64.9292 65.33 64.7892 65.27 64.6692 65.15C64.5692 65.03 64.5192 64.88 64.5192 64.7L64.4892 63.77C64.4892 63.05 64.5492 61.99 64.6692 60.59C64.7692 59.03 64.8192 57.98 64.8192 57.44L64.7892 56.09C64.7692 55.69 64.7592 55.25 64.7592 54.77C64.7592 53.97 64.7892 52.78 64.8492 51.2C64.9092 49.58 64.9392 48.38 64.9392 47.6L64.9092 45.86L64.7892 45.71V45.53C64.7892 45.01 64.9992 44.75 65.4192 44.75C65.7392 44.75 66.2592 44.88 66.9792 45.14C67.7192 45.38 68.0892 45.58 68.0892 45.74V45.83C68.4492 46.41 68.6892 46.99 68.8092 47.57C68.9492 48.15 69.0192 48.89 69.0192 49.79C69.0192 51.25 68.8592 52.44 68.5392 53.36H68.5692C68.4892 53.52 68.3292 53.78 68.0892 54.14L67.6692 54.77C68.0292 55.05 68.3292 55.46 68.5692 56C68.8292 56.54 68.9892 57.06 69.0492 57.56C69.0692 57.74 69.0892 57.96 69.1092 58.22C69.1292 58.48 69.1492 58.79 69.1692 59.15L69.1992 59.93V60.35C69.1992 62.27 68.5992 63.69 67.3992 64.61C66.7792 65.09 66.0092 65.33 65.0892 65.33ZM66.0192 54.17C67.3392 54.17 67.9992 52.84 67.9992 50.18C67.9992 49.96 67.9792 49.53 67.9392 48.89L67.9092 48.32L67.8492 48.26C67.7692 47.6 67.6592 47.08 67.5192 46.7C67.4192 46.42 67.2592 46.2 67.0392 46.04C66.8192 45.86 66.5792 45.77 66.3192 45.77C65.8792 45.77 65.6592 47.08 65.6592 49.7C65.6592 50.2 65.6692 50.54 65.6892 50.72V51.32V52.34C65.6692 52.66 65.6592 53.02 65.6592 53.42V53.78C65.6592 53.78 65.6792 53.84 65.7192 53.96L65.7792 54.17H66.0192ZM65.5692 64.16C66.0492 64.16 66.4892 64 66.8892 63.68C67.3092 63.36 67.6392 62.95 67.8792 62.45C68.1192 61.93 68.2392 61.42 68.2392 60.92L68.2692 60.8V60.56V60.23C68.2692 59.39 68.1992 58.59 68.0592 57.83C67.8392 56.81 67.4492 56.07 66.8892 55.61C66.5692 55.35 66.1892 55.22 65.7492 55.22C65.6492 56.88 65.5992 58.24 65.5992 59.3V59.99C65.5992 60.57 65.6292 61.03 65.6892 61.37C65.5892 61.55 65.5392 62.03 65.5392 62.81V63.59L65.5692 64.16ZM76.2253 65.57C73.8853 65.57 72.7153 61.89 72.7153 54.53V53.48C72.7153 47.9 73.4353 45.11 74.8753 45.11C74.9753 45.11 75.1153 45.14 75.2953 45.2C75.9353 45.42 76.5653 45.56 77.1853 45.62C77.5653 45.7 77.9453 46.09 78.3253 46.79C78.7453 47.51 79.0553 48.46 79.2553 49.64C79.4753 50.82 79.5853 52.03 79.5853 53.27L79.5253 53.42C79.5253 54.08 79.5353 54.67 79.5553 55.19L79.5853 56.99C79.5853 58.01 79.5453 58.93 79.4653 59.75C79.3453 60.99 79.1453 62.06 78.8653 62.96C78.6853 63.5 78.4753 63.95 78.2353 64.31C78.0153 64.67 77.7353 64.97 77.3953 65.21C77.0753 65.45 76.6853 65.57 76.2253 65.57ZM76.1053 64.7C76.8853 64.7 77.4653 64.15 77.8453 63.05C78.2253 61.93 78.4553 60.79 78.5353 59.63C78.6153 58.43 78.6553 57.47 78.6553 56.75C78.6553 55.95 78.5953 54.77 78.4753 53.21C78.3753 51.47 78.3253 50.29 78.3253 49.67L78.2053 49.43L78.2653 49.28C78.2653 48.4 78.0153 47.64 77.5153 47C77.0353 46.36 76.4453 46.04 75.7453 46.04C74.8253 46.04 74.2753 46.48 74.0953 47.36C74.0553 47.66 74.0153 48.09 73.9753 48.65C73.9753 50.13 73.9153 51.14 73.7953 51.68C73.7953 51.98 73.7653 52.45 73.7053 53.09L73.6453 54.5C73.6453 54.94 73.6553 55.33 73.6753 55.67L73.7053 56.87C73.7053 57.81 73.7853 58.89 73.9453 60.11C74.0653 61.01 74.2053 61.77 74.3653 62.39C74.5253 63.01 74.7553 63.54 75.0553 63.98C75.3553 64.46 75.7053 64.7 76.1053 64.7ZM86.5964 65.57C84.2564 65.57 83.0864 61.89 83.0864 54.53V53.48C83.0864 47.9 83.8064 45.11 85.2464 45.11C85.3464 45.11 85.4864 45.14 85.6664 45.2C86.3064 45.42 86.9364 45.56 87.5564 45.62C87.9364 45.7 88.3164 46.09 88.6964 46.79C89.1164 47.51 89.4264 48.46 89.6264 49.64C89.8464 50.82 89.9564 52.03 89.9564 53.27L89.8964 53.42C89.8964 54.08 89.9064 54.67 89.9264 55.19L89.9564 56.99C89.9564 58.01 89.9164 58.93 89.8364 59.75C89.7164 60.99 89.5164 62.06 89.2364 62.96C89.0564 63.5 88.8464 63.95 88.6064 64.31C88.3864 64.67 88.1064 64.97 87.7664 65.21C87.4464 65.45 87.0564 65.57 86.5964 65.57ZM86.4764 64.7C87.2564 64.7 87.8364 64.15 88.2164 63.05C88.5964 61.93 88.8264 60.79 88.9064 59.63C88.9864 58.43 89.0264 57.47 89.0264 56.75C89.0264 55.95 88.9664 54.77 88.8464 53.21C88.7464 51.47 88.6964 50.29 88.6964 49.67L88.5764 49.43L88.6364 49.28C88.6364 48.4 88.3864 47.64 87.8864 47C87.4064 46.36 86.8164 46.04 86.1164 46.04C85.1964 46.04 84.6464 46.48 84.4664 47.36C84.4264 47.66 84.3864 48.09 84.3464 48.65C84.3464 50.13 84.2864 51.14 84.1664 51.68C84.1664 51.98 84.1364 52.45 84.0764 53.09L84.0164 54.5C84.0164 54.94 84.0264 55.33 84.0464 55.67L84.0764 56.87C84.0764 57.81 84.1564 58.89 84.3164 60.11C84.4364 61.01 84.5764 61.77 84.7364 62.39C84.8964 63.01 85.1264 63.54 85.4264 63.98C85.7264 64.46 86.0764 64.7 86.4764 64.7ZM100.418 65.54C99.9375 65.54 99.3675 64.64 98.7075 62.84C98.0875 61.18 97.5475 59.38 97.0875 57.44C96.6275 55.5 96.3775 54.14 96.3375 53.36L96.2475 53.24L95.7975 54.2C95.5775 54.62 95.4075 54.97 95.2875 55.25C95.1875 55.51 95.0875 55.84 94.9875 56.24C94.8675 56.62 94.8075 57.01 94.8075 57.41C94.8075 57.81 94.7875 58.17 94.7475 58.49L94.6875 59.57V63.41C94.6875 63.59 94.7175 63.88 94.7775 64.28C94.8375 64.64 94.8675 64.92 94.8675 65.12C94.8675 65.22 94.8175 65.3 94.7175 65.36C94.6175 65.44 94.5075 65.48 94.3875 65.48C94.1275 65.48 93.9475 65.44 93.8475 65.36C93.7675 65.28 93.7275 65.11 93.7275 64.85V59.21C93.7275 58.89 93.7775 58.26 93.8775 57.32C93.9775 56.38 94.0275 55.75 94.0275 55.43C94.0275 54.59 94.0775 53.62 94.1775 52.52C94.2575 51.4 94.2975 50.44 94.2975 49.64V45.47C94.4175 45.25 94.6075 45.14 94.8675 45.14C95.0275 45.14 95.1575 45.2 95.2575 45.32C95.3775 45.42 95.4375 45.55 95.4375 45.71C95.2775 46.07 95.1975 46.55 95.1975 47.15L95.1375 50.3C95.0975 51.26 95.0775 52.32 95.0775 53.48C95.2775 53.42 96.0575 52.04 97.4175 49.34C98.7775 46.66 99.5275 45.32 99.6675 45.32C100.188 45.32 100.448 45.49 100.448 45.83C99.1675 47.73 98.1075 49.58 97.2675 51.38L97.2375 52.34C97.2175 52.62 97.2075 52.94 97.2075 53.3C97.2075 54.18 97.5475 55.83 98.2275 58.25C98.9075 60.67 99.4875 62.35 99.9675 63.29C100.188 63.59 100.318 63.76 100.358 63.8C100.558 64.08 100.698 64.32 100.778 64.52C100.878 64.7 100.928 64.89 100.928 65.09C100.928 65.23 100.878 65.34 100.778 65.42C100.678 65.5 100.558 65.54 100.418 65.54Z" fill="#3e1a09"/>
</svg>
