<svg width="165" height="166" viewBox="0 0 165 166" fill="none" xmlns="http://www.w3.org/2000/svg">
<path d="M108.453 41.8715C114.884 26.0496 111.868 12.7341 101.643 5.51042C90.7595 -2.17974 72.8479 3.19685 56.9855 17.4204C41.3378 3.4363 23.504 -1.66667 12.5051 6.1883C-1.79302 16.3973 -2.47093 38.0622 16.5415 61.5929" stroke="#3E1A09" stroke-width="4" stroke-linecap="round" stroke-linejoin="round"/>
<path d="M92.7875 163.802C92.7875 163.802 127.513 137.034 144.072 116.501C168.613 86.0701 167.957 58.2325 149.775 45.2466C135.785 35.2584 112.932 41.9908 92.7875 60.1169C72.6432 41.9908 49.7904 35.2553 35.8001 45.2466C17.6179 58.2294 16.9618 86.0701 41.5032 116.501C58.062 137.034 92.7875 163.802 92.7875 163.802Z" stroke="#3E1A09" stroke-width="4" stroke-linecap="round" stroke-linejoin="round"/>
<path d="M92.4609 141.618C92.4609 141.618 113.591 125.348 123.704 112.916C138.689 94.4911 138.422 77.7394 127.482 70.0088C119.064 64.0601 105.207 68.2177 92.9367 79.2196C80.8339 68.4043 67.0395 64.455 58.5284 70.5312C47.4674 78.4297 46.945 95.1845 61.6505 113.385C71.5734 125.665 92.4578 141.615 92.4578 141.615L92.4609 141.618Z" stroke="#3E1A09" stroke-width="4" stroke-linecap="round" stroke-linejoin="round"/>
</svg>
