<svg width="163" height="163" viewBox="0 0 163 163" fill="none" xmlns="http://www.w3.org/2000/svg">
<path d="M118.033 142.436C129.591 144.377 136.889 147.226 136.889 150.401C136.889 156.255 112.091 160.997 81.5023 160.997C50.9138 160.997 26.1152 156.252 26.1152 150.401C26.1152 145.444 43.9174 141.281 67.9602 140.123" stroke="#3E1A09" stroke-width="4" stroke-linecap="round" stroke-linejoin="round"/>
<path d="M136.889 150.721C136.889 144.868 112.091 140.126 81.5023 140.126C50.9138 140.126 26.1152 144.871 26.1152 150.721" stroke="#3E1A09" stroke-width="4" stroke-linecap="round" stroke-linejoin="round"/>
<path d="M26.1133 150.402L63.8262 77.3467" stroke="#3E1A09" stroke-width="4" stroke-linecap="round" stroke-linejoin="round"/>
<path d="M136.891 150.402L99.1777 77.3467" stroke="#3E1A09" stroke-width="4" stroke-linecap="round" stroke-linejoin="round"/>
<path d="M120.493 23.0078C144.673 25.8296 161 31.1989 161 37.3543C161 46.4443 125.408 53.8126 81.5 53.8126C37.592 53.8126 2 46.4443 2 37.3543C2 31.1989 18.3272 25.8296 42.5072 23.0078" stroke="#3E1A09" stroke-width="4" stroke-linecap="round" stroke-linejoin="round"/>
<path d="M81.4995 43.4915C68.2714 43.4915 56.2622 42.4829 47.4281 40.8465C44.4784 40.298 42.3301 37.7413 42.3301 34.7398V34.3924C42.3301 16.575 56.9081 2 74.7224 2H88.2736C106.091 2 120.666 16.5781 120.666 34.3924C120.666 37.4823 118.399 40.1029 115.339 40.5357C107.548 41.6357 92.7439 43.4915 81.4965 43.4915H81.4995Z" stroke="#3E1A09" stroke-width="4" stroke-linecap="round" stroke-linejoin="round"/>
<path d="M118.905 51.7549C116.165 58.7483 110.458 64.2853 103.355 66.7931C96.8458 68.1431 89.4043 68.911 81.5028 68.911C73.6012 68.911 66.1568 68.1461 59.6478 66.7931L59.7088 66.8145C52.5751 64.3157 46.8432 58.7697 44.0977 51.7549" stroke="#3E1A09" stroke-width="4" stroke-linecap="round" stroke-linejoin="round"/>
<path d="M81.5004 33.8551C71.9899 33.8551 63.3571 33.2731 57.0096 32.3285C54.8887 32.0115 53.3438 30.5367 53.3438 28.8028V28.6017C53.3438 18.3141 63.8233 9.89453 76.6309 9.89453H86.373C99.1806 9.89453 109.66 18.3141 109.66 28.6017C109.66 30.3874 108.03 31.8988 105.83 32.1487C100.229 32.7856 89.5878 33.8551 81.5004 33.8551Z" stroke="#3E1A09" stroke-width="4" stroke-linecap="round" stroke-linejoin="round"/>
<path d="M146.98 59.0713L154.388 70.5747" stroke="#3E1A09" stroke-width="4" stroke-linecap="round" stroke-linejoin="round"/>
<path d="M141.086 60.1377L139.404 72.0891" stroke="#3E1A09" stroke-width="4" stroke-linecap="round" stroke-linejoin="round"/>
<path d="M16.0251 59.0713L8.61719 70.5747" stroke="#3E1A09" stroke-width="4" stroke-linecap="round" stroke-linejoin="round"/>
<path d="M21.918 60.1377L23.6 72.0891" stroke="#3E1A09" stroke-width="4" stroke-linecap="round" stroke-linejoin="round"/>
<path d="M103.493 66.7461V72.8741C103.493 75.3363 100.509 77.3475 96.8648 77.3475H66.1454C62.5008 77.3475 59.5176 75.3333 59.5176 72.8741V66.7796" stroke="#3E1A09" stroke-width="4" stroke-linecap="round" stroke-linejoin="round"/>
<path d="M15.5826 46.5576C15.4089 46.9416 15.2869 47.353 15.2321 47.7826C14.8603 50.6074 17.3499 53.2646 20.7933 53.7187C24.2337 54.1697 27.3267 52.2438 27.6954 49.419" stroke="#3E1A09" stroke-width="4" stroke-linecap="round" stroke-linejoin="round"/>
<path d="M147.416 46.5576C147.589 46.9416 147.711 47.353 147.766 47.7826C148.138 50.6074 145.648 53.2646 142.205 53.7187C138.764 54.1697 135.671 52.2438 135.303 49.419" stroke="#3E1A09" stroke-width="4" stroke-linecap="round" stroke-linejoin="round"/>
<path d="M54.3886 53.1475C54.2606 53.4705 54.1723 53.8087 54.1266 54.1622C53.7548 56.987 56.2445 59.6442 59.6879 60.0982C63.1282 60.5492 66.2212 58.6234 66.5899 55.7986C66.6722 55.18 66.6143 54.5705 66.4436 53.9885" stroke="#3E1A09" stroke-width="4" stroke-linecap="round" stroke-linejoin="round"/>
<path d="M108.615 53.1475C108.743 53.4705 108.831 53.8087 108.877 54.1622C109.249 56.987 106.759 59.6442 103.316 60.0982C99.8756 60.5492 96.7826 58.6234 96.4139 55.7986C96.3316 55.18 96.3895 54.5705 96.5602 53.9885" stroke="#3E1A09" stroke-width="4" stroke-linecap="round" stroke-linejoin="round"/>
</svg>
