<svg width="74" height="74" viewBox="0 0 74 74" fill="none" xmlns="http://www.w3.org/2000/svg">
<g clip-path="url(#clip0_334_27813)">
<path d="M37 69.375C28.4136 69.375 20.1789 65.9641 14.1074 59.8926C8.03593 53.8211 4.625 45.5864 4.625 37C4.625 28.4136 8.03593 20.1789 14.1074 14.1074C20.1789 8.03593 28.4136 4.625 37 4.625C45.5864 4.625 53.8211 8.03593 59.8926 14.1074C65.9641 20.1789 69.375 28.4136 69.375 37C69.375 45.5864 65.9641 53.8211 59.8926 59.8926C53.8211 65.9641 45.5864 69.375 37 69.375ZM37 74C46.813 74 56.2241 70.1018 63.163 63.163C70.1018 56.2241 74 46.813 74 37C74 27.187 70.1018 17.7759 63.163 10.837C56.2241 3.8982 46.813 0 37 0C27.187 0 17.7759 3.8982 10.837 10.837C3.8982 17.7759 0 27.187 0 37C0 46.813 3.8982 56.2241 10.837 63.163C17.7759 70.1018 27.187 74 37 74Z" fill="#3E1A09"/>
<path d="M19.8183 44.2474C20.3494 43.9407 20.9806 43.8576 21.573 44.0164C22.1654 44.1751 22.6705 44.5626 22.9772 45.0938C24.3976 47.5558 26.4415 49.6002 28.9033 51.0211C31.3651 52.442 34.1578 53.1892 37.0002 53.1875C39.8426 53.1892 42.6352 52.442 45.097 51.0211C47.5588 49.6002 49.6028 47.5558 51.0232 45.0938C51.1739 44.8286 51.3756 44.5959 51.6166 44.4091C51.8576 44.2222 52.1333 44.0849 52.4276 44.005C52.7219 43.9251 53.0291 43.9042 53.3315 43.9435C53.634 43.9828 53.9256 44.0816 54.1897 44.234C54.4539 44.3865 54.6852 44.5898 54.8704 44.832C55.0557 45.0743 55.1912 45.3508 55.2691 45.6456C55.3471 45.9405 55.366 46.2478 55.3246 46.55C55.2833 46.8521 55.1827 47.1432 55.0284 47.4062C53.2021 50.5714 50.5743 53.1996 47.4095 55.0264C44.2446 56.8532 40.6544 57.8142 37.0002 57.8125C33.3459 57.8142 29.7557 56.8532 26.5909 55.0264C23.426 53.1996 20.7982 50.5714 18.9719 47.4062C18.6653 46.8751 18.5822 46.2439 18.7409 45.6515C18.8996 45.0591 19.2872 44.554 19.8183 44.2474ZM32.3752 30.0625C32.3752 33.892 30.3032 37 27.7502 37C25.1972 37 23.1252 33.892 23.1252 30.0625C23.1252 26.233 25.1972 23.125 27.7502 23.125C30.3032 23.125 32.3752 26.233 32.3752 30.0625ZM50.8752 30.0625C50.8752 33.892 48.8032 37 46.2502 37C43.6972 37 41.6252 33.892 41.6252 30.0625C41.6252 26.233 43.6972 23.125 46.2502 23.125C48.8032 23.125 50.8752 26.233 50.8752 30.0625Z" fill="#3E1A09"/>
</g>
<defs>
<clipPath id="clip0_334_27813">
<rect width="74" height="74" fill="white"/>
</clipPath>
</defs>
</svg>
