<svg width="147" height="148" viewBox="0 0 147 148" fill="none" xmlns="http://www.w3.org/2000/svg">
<path d="M61.648 111.279C60.6822 110.459 59.7688 109.775 58.9548 108.98C51.6672 101.863 35.7674 84.5647 23.2893 71.5981C9.72671 57.503 1.94237 38.7334 2.00032 19.1746C2.01688 13.7165 2.45014 7.98243 3.34143 2C31.849 26.1836 62.8042 54.8208 91.4801 79.1479" stroke="#3E1A09" stroke-width="4" stroke-linecap="round" stroke-linejoin="round"/>
<path d="M61.6473 111.279C67.4531 104.436 85.9136 85.7103 91.4794 79.1484C103.651 95.1145 119.609 106.668 134.962 118.895C137.523 120.934 140.092 122.976 142.46 125.231C144.571 127.242 144.618 129.792 142.44 132.383C139.273 136.155 136.232 140.085 132.722 143.495C131.386 144.795 128.74 145.479 127.015 145.206C126.174 145.074 125.249 141.859 125.782 140.449C128.373 133.589 88.3944 110.233 88.1405 110.049C79.6194 103.743 72.5305 109.4 61.6445 111.276L61.6473 111.279Z" stroke="#3E1A09" stroke-width="4" stroke-linecap="round" stroke-linejoin="round"/>
<path d="M22.6925 86.585C22.6925 90.9669 25.9486 95.6635 26.884 97.148C28.5701 99.8247 29.2903 103.23 26.884 105.534C24.9028 107.43 21.2521 107.435 19.4419 105.219C16.7929 101.98 19.8144 96.2319 22.6925 86.585Z" stroke="#3E1A09" stroke-width="4" stroke-linecap="round" stroke-linejoin="round"/>
<path d="M38.9406 124.936C38.9406 129.318 42.1967 134.014 43.1321 135.499C44.8181 138.175 45.5383 141.58 43.1321 143.884C41.1508 145.78 37.5001 145.786 35.6899 143.57C33.0409 140.33 36.0625 134.582 38.9406 124.936Z" stroke="#3E1A09" stroke-width="4" stroke-linecap="round" stroke-linejoin="round"/>
<path d="M132.432 130.367C133.861 128.938 133.861 126.621 132.432 125.192C131.003 123.763 128.686 123.763 127.257 125.192C125.828 126.621 125.828 128.938 127.257 130.367C128.686 131.796 131.003 131.795 132.432 130.367Z" stroke="#3E1A09" stroke-width="4" stroke-linecap="round" stroke-linejoin="round"/>
<path d="M24.4277 20.2363C25.3632 21.3594 26.8836 22.8854 27.877 25.3578C31.6022 34.635 26.2103 41.7902 25.3218 50.7997C24.4581 59.5471 31.2684 66.981 30.3467 75.8139C30.1729 77.4861 29.861 78.1428 30.5012 79.2576" stroke="#3E1A09" stroke-width="4" stroke-linecap="round" stroke-linejoin="round"/>
</svg>
